<svg width="32" height="32" viewBox="0 0 32 32" fill="none" xmlns="http://www.w3.org/2000/svg">
<g clip-path="url(#clip0_1_2)">
<rect width="32" height="32" rx="9" fill="white"/>
<rect width="32" height="32" fill="url(#paint0_linear_1_2)"/>
<g filter="url(#filter0_d_1_2)">
<path d="M18.1199 8.01473C16.9612 7.89801 15.8618 8.48481 15.4645 9.43197C15.375 9.64543 15.3436 9.87621 15.3289 10.1181C15.3178 10.3006 15.3151 10.5182 15.3145 10.7744L15.3142 11.1336C15.3142 11.1374 15.3142 11.1412 15.3142 11.145V17.5142C14.5374 16.8845 13.4923 16.4989 12.3428 16.4989C9.94435 16.4989 8 18.178 8 20.2494C8 22.3209 9.94435 24 12.3428 24C14.7414 24 16.6857 22.3209 16.6857 20.2494V13.3094C16.7815 13.3535 16.8852 13.3983 16.999 13.4473L19.4744 14.5162C19.8568 14.6813 20.1681 14.8157 20.4231 14.9117C20.6801 15.0085 20.9332 15.0875 21.1943 15.1138C22.3529 15.2305 23.4523 14.6437 23.8496 13.6965C23.9392 13.4831 23.9706 13.2523 23.9854 13.0104C23.9999 12.7705 23.9999 12.47 23.9999 12.1008L24 12.0354C24.0001 11.7608 24.0002 11.546 23.9551 11.3424C23.839 10.8185 23.5035 10.3497 23.0128 10.0257C22.8221 9.89982 22.5997 9.80386 22.3152 9.68117L19.8398 8.6123C19.4574 8.44715 19.1462 8.31276 18.8912 8.21677C18.6341 8.11996 18.381 8.04103 18.1199 8.01473Z" fill="white"/>
</g>
</g>
<defs>
<filter id="filter0_d_1_2" x="4" y="8" width="24" height="24" filterUnits="userSpaceOnUse" color-interpolation-filters="sRGB">
<feFlood flood-opacity="0" result="BackgroundImageFix"/>
<feColorMatrix in="SourceAlpha" type="matrix" values="0 0 0 0 0 0 0 0 0 0 0 0 0 0 0 0 0 0 127 0" result="hardAlpha"/>
<feOffset dy="4"/>
<feGaussianBlur stdDeviation="2"/>
<feComposite in2="hardAlpha" operator="out"/>
<feColorMatrix type="matrix" values="0 0 0 0 0 0 0 0 0 0 0 0 0 0 0 0 0 0 0.25 0"/>
<feBlend mode="normal" in2="BackgroundImageFix" result="effect1_dropShadow_1_2"/>
<feBlend mode="normal" in="SourceGraphic" in2="effect1_dropShadow_1_2" result="shape"/>
</filter>
<linearGradient id="paint0_linear_1_2" x1="4" y1="5" x2="32" y2="32" gradientUnits="userSpaceOnUse">
<stop stop-color="#FF3434"/>
<stop offset="1" stop-color="#3AFA80"/>
</linearGradient>
<clipPath id="clip0_1_2">
<rect width="32" height="32" rx="9" fill="white"/>
</clipPath>
</defs>
</svg>
